<?xml version="1.0" encoding="UTF-8" standalone="no"?>
<!-- Generator: Adobe Illustrator 16.0.0, SVG Export Plug-In . SVG Version: 6.00 Build 0)  -->

<svg
   xmlns:dc="http://purl.org/dc/elements/1.1/"
   xmlns:cc="http://creativecommons.org/ns#"
   xmlns:rdf="http://www.w3.org/1999/02/22-rdf-syntax-ns#"
   xmlns:svg="http://www.w3.org/2000/svg"
   xmlns="http://www.w3.org/2000/svg"
   xmlns:sodipodi="http://sodipodi.sourceforge.net/DTD/sodipodi-0.dtd"
   xmlns:inkscape="http://www.inkscape.org/namespaces/inkscape"
   version="1.1"
   id="Capa_1"
   x="0px"
   y="0px"
   width="187.211px"
   height="187.211px"
   viewBox="0 0 187.211 187.211"
   style="enable-background:new 0 0 187.211 187.211;"
   xml:space="preserve"
   inkscape:version="0.91 r13725"
   sodipodi:docname="bluenature-5.svg"><metadata
   id="metadata47"><rdf:RDF><cc:Work
       rdf:about=""><dc:format>image/svg+xml</dc:format><dc:type
         rdf:resource="http://purl.org/dc/dcmitype/StillImage" /><dc:title></dc:title></cc:Work></rdf:RDF></metadata><defs
   id="defs45" /><sodipodi:namedview
   pagecolor="#ffffff"
   bordercolor="#666666"
   borderopacity="1"
   objecttolerance="10"
   gridtolerance="10"
   guidetolerance="10"
   inkscape:pageopacity="0"
   inkscape:pageshadow="2"
   inkscape:window-width="701"
   inkscape:window-height="480"
   id="namedview43"
   showgrid="false"
   inkscape:zoom="1.2606097"
   inkscape:cx="93.605499"
   inkscape:cy="92.812232"
   inkscape:window-x="747"
   inkscape:window-y="599"
   inkscape:window-maximized="0"
   inkscape:current-layer="g3" />
<g
   id="g3">
	<g
   id="g5"
   style="fill:#5ecbea;fill-opacity:1">
		<path
   d="M112.387,34.959c5.544,5.66,10.226,11.869,13.926,18.376c8.595-5.006,18.726-8.378,30.015-9.17    c-15.226,11.615-3.534,60.52-25.948,75.203l-0.407,0.65c48.627,0.856,37.054-77.567,57.239-95.069    C156.712,11.304,129.753,18.811,112.387,34.959z"
   id="path7"
   style="fill:#5ecbea;fill-opacity:1" />
		<path
   d="M76.293,74.053c17.129,17.753,24.288,97.465,24.288,97.465l13.929-14.327C114.509,157.184,104.313,87.751,76.293,74.053z"
   id="path9"
   style="fill:#5ecbea;fill-opacity:1" />
		<path
   d="M139.648,56.843c-5.497,2.684-9.836,8.766-13.223,15.64C114.196,32.423,65.175-3.275,0,27.03    c42.076,6.773,13.479,108.309,82.883,109.852c-23.782-11.508-10.435-51.427-27.461-77.47    c46.946-7.438,66.788,41.946,60.204,67.717c10.923-11.278,15.007-26.279,13.465-41.612    C131.485,73.884,134.96,61.693,139.648,56.843z"
   id="path11"
   style="fill:#5ecbea;fill-opacity:1" />
	</g>
</g>
<g
   id="g13">
</g>
<g
   id="g15">
</g>
<g
   id="g17">
</g>
<g
   id="g19">
</g>
<g
   id="g21">
</g>
<g
   id="g23">
</g>
<g
   id="g25">
</g>
<g
   id="g27">
</g>
<g
   id="g29">
</g>
<g
   id="g31">
</g>
<g
   id="g33">
</g>
<g
   id="g35">
</g>
<g
   id="g37">
</g>
<g
   id="g39">
</g>
<g
   id="g41">
</g>
</svg>