<?xml version="1.0" encoding="UTF-8" standalone="no"?>
<!-- Generator: Adobe Illustrator 19.1.0, SVG Export Plug-In . SVG Version: 6.00 Build 0)  -->

<svg
   xmlns:dc="http://purl.org/dc/elements/1.1/"
   xmlns:cc="http://creativecommons.org/ns#"
   xmlns:rdf="http://www.w3.org/1999/02/22-rdf-syntax-ns#"
   xmlns:svg="http://www.w3.org/2000/svg"
   xmlns="http://www.w3.org/2000/svg"
   xmlns:sodipodi="http://sodipodi.sourceforge.net/DTD/sodipodi-0.dtd"
   xmlns:inkscape="http://www.inkscape.org/namespaces/inkscape"
   version="1.1"
   id="Capa_1"
   x="0px"
   y="0px"
   viewBox="0 0 254.019 254.019"
   style="enable-background:new 0 0 254.019 254.019;"
   xml:space="preserve"
   inkscape:version="0.91 r13725"
   sodipodi:docname="bluefood.svg"><metadata
   id="metadata45"><rdf:RDF><cc:Work
       rdf:about=""><dc:format>image/svg+xml</dc:format><dc:type
         rdf:resource="http://purl.org/dc/dcmitype/StillImage" /><dc:title></dc:title></cc:Work></rdf:RDF></metadata><defs
   id="defs43" /><sodipodi:namedview
   pagecolor="#ffffff"
   bordercolor="#666666"
   borderopacity="1"
   objecttolerance="10"
   gridtolerance="10"
   guidetolerance="10"
   inkscape:pageopacity="0"
   inkscape:pageshadow="2"
   inkscape:window-width="701"
   inkscape:window-height="480"
   id="namedview41"
   showgrid="false"
   inkscape:zoom="0.92906437"
   inkscape:cx="127.0095"
   inkscape:cy="125.93315"
   inkscape:window-x="1254"
   inkscape:window-y="88"
   inkscape:window-maximized="0"
   inkscape:current-layer="Capa_1" />
<g
   id="g3"
   style="fill:#5ecbea;fill-opacity:1">
	<g
   id="g5"
   style="fill:#5ecbea;fill-opacity:1">
		<g
   id="g7"
   style="fill:#5ecbea;fill-opacity:1">
			<path
   style="fill:#5ecbea;fill-opacity:1"
   d="M126.514,48.282c-43.428,0-78.738,35.319-78.738,78.738c0,43.389,35.309,78.718,78.738,78.718     c43.389,0,78.738-35.329,78.738-78.708C205.252,83.601,169.932,48.282,126.514,48.282z M126.514,198.898     c-39.647,0-71.879-32.232-71.879-71.869s32.222-71.928,71.879-71.928s71.879,32.29,71.879,71.928     S166.171,198.898,126.514,198.898z M193.352,127.029c0,36.882-29.926,66.808-66.828,66.808     c-36.912,0-66.838-29.936-66.838-66.808c0-36.921,29.936-66.847,66.838-66.847C163.426,60.172,193.352,90.108,193.352,127.029z      M41.308,56.733l0.02,38.836h-0.059c-0.391,12.389-13.971,17.117-13.971,17.117v24.924h0.02l-0.02,57.312     c0,0-5.491,7.093-12.604,0v-82.226h0.166c-8.285-3.527-14.411-4.748-14.802-17.117H0V56.733l6.224-0.029L9.252,94.28H16.6     l0.928-38.348h5.989l0.723,38.348h8.617l1.983-37.547L41.308,56.733L41.308,56.733z M252.1,122.857h-15.232v77.038h-17.596     V54.144h17.596C236.878,54.134,260.844,84.548,252.1,122.857z"
   id="path9" />
		</g>
	</g>
</g>
<g
   id="g11">
</g>
<g
   id="g13">
</g>
<g
   id="g15">
</g>
<g
   id="g17">
</g>
<g
   id="g19">
</g>
<g
   id="g21">
</g>
<g
   id="g23">
</g>
<g
   id="g25">
</g>
<g
   id="g27">
</g>
<g
   id="g29">
</g>
<g
   id="g31">
</g>
<g
   id="g33">
</g>
<g
   id="g35">
</g>
<g
   id="g37">
</g>
<g
   id="g39">
</g>
</svg>