<?xml version="1.0" encoding="iso-8859-1"?>
<!-- Generator: Adobe Illustrator 16.0.0, SVG Export Plug-In . SVG Version: 6.00 Build 0)  -->
<!DOCTYPE svg PUBLIC "-//W3C//DTD SVG 1.1//EN" "http://www.w3.org/Graphics/SVG/1.1/DTD/svg11.dtd">
<svg version="1.1" id="Capa_1" xmlns="http://www.w3.org/2000/svg" xmlns:xlink="http://www.w3.org/1999/xlink" x="0px" y="0px"
	 width="31.653px" height="31.653px" viewBox="0 0 31.653 31.653" style="enable-background:new 0 0 31.653 31.653;"
	 xml:space="preserve">
<g>
	<g>
		<path d="M27.745,19.571c-0.037,0.293-0.113,0.544-0.207,0.751c0.762,0.322,1.197,0.681,1.197,1.061
			c0,1.398-5.779,2.532-12.91,2.532c-7.129,0-12.909-1.134-12.909-2.532c0-0.536,0.853-1.032,2.299-1.44
			c-0.211-0.184-0.419-0.371-0.625-0.564C1.754,20.111,0,21.12,0,22.234c0,2.239,7.086,4.057,15.826,4.057
			c8.741,0,15.827-1.816,15.827-4.057C31.651,21.212,30.172,20.284,27.745,19.571z"/>
		<path d="M10.089,21.487c3.543,0.643,12.478,0.008,14.341-0.342c1.861-0.349,2.727-1.336,2.023-2.957
			c-0.701-1.62-2.467-3.235-4.107-4.428c-1.641-1.191-3.062-4.233-1.27-5.584c1.703-1.282,2.762,0.957,3.145,2.188
			c0.326,1.048,1.021,1.118,1.279,2.421c0.373,1.897,0.535,3.283,0.535,3.283s0.723,0.419,0.746-2.353
			c0.016-1.863,1.234-2.864,0.955-4.285s-3.25-5.263-6.916-3.702c-4.705,2.002-3.051,7.405-0.926,9.454
			c2.125,2.05,1.135,2.026-0.91,0.668c-2.045-1.357-4.137-2.868-7.595-2.927c-3.458-0.057-2.79,1.441-5.495,1.653
			c-0.954,0.075-1.938-0.45-2.678-0.513c-1.163-0.097-1.82,0.249-1.583,0.513C2.448,15.488,6.546,20.842,10.089,21.487z
			 M26.618,9.689c0.232,0,0.418,0.188,0.418,0.42c0,0.23-0.188,0.419-0.418,0.419S26.2,10.339,26.2,10.109
			C26.2,9.876,26.387,9.689,26.618,9.689z"/>
	</g>
</g>
<g>
</g>
<g>
</g>
<g>
</g>
<g>
</g>
<g>
</g>
<g>
</g>
<g>
</g>
<g>
</g>
<g>
</g>
<g>
</g>
<g>
</g>
<g>
</g>
<g>
</g>
<g>
</g>
<g>
</g>
</svg>
