<?xml version="1.0" encoding="iso-8859-1"?>
<!-- Generator: Adobe Illustrator 18.1.1, SVG Export Plug-In . SVG Version: 6.00 Build 0)  -->
<svg version="1.1" id="Capa_1" xmlns="http://www.w3.org/2000/svg" xmlns:xlink="http://www.w3.org/1999/xlink" x="0px" y="0px"
	 viewBox="0 0 287.998 287.998" style="enable-background:new 0 0 287.998 287.998;" xml:space="preserve">
<g>
	<path id="_233954448" style="fill:#030104;" d="M78.002,220.566c-18.621,0-33.705,15.087-33.705,33.708
		c0,18.622,15.084,33.709,33.705,33.709c18.624,0,33.71-15.087,33.71-33.709C111.712,235.653,96.626,220.566,78.002,220.566z
		 M78.004,238.608c8.666,0,15.69,7.022,15.69,15.688c0,8.666-7.024,15.689-15.69,15.689c-8.665,0-15.689-7.023-15.689-15.689
		C62.315,245.63,69.34,238.608,78.004,238.608L78.004,238.608z"/>
	<path id="_233962248" style="fill:#030104;" d="M51.47,128.474h1.562H213.59h1.62l-1.892,8.014
		c8.053,0.122,15.754-5.926,20.05-9.79c3.071-4.029,16.575,4.771,6.888,13.891c-9.843,9.582-19.638,14.907-31.806,16.548
		l-11.405,48.354h-20.04l39.612,70.828c1.73,5.308-14.783,15.53-18.38,10.167l-16.636-28.023l-64.503,0.008v-12.632l59.427,0.022
		l-25.29-40.371h-35.129l-11.341,19.788c-6.477-5.266-13.303-9.772-20.961-10.546l4.724-9.242H64.619L51.47,128.474L51.47,128.474z"
		/>
	<polygon id="_233962464" style="fill:#030104;" points="46.861,111.48 219.759,111.48 219.759,123.827 46.861,123.827 	"/>
	<path id="_233963424" style="fill:#030104;" d="M156.345,43.952c29.76,21.689,29.412,62.536-0.49,65.071
		c6.549-19.889-28.892-14.735-24.557-42.727c-17.653,10.575-29.034,26.16-15.462,40.753c-38.917,2.121-47.047-17.153-27.942-46.873
		c12.558,20.841,29.484,9.804,16.887-12.785C120.14,40.487,128.064,23.925,130.318,0c9.03,7.916,10.905,19.225,9.453,33.03
		C123.983,53.168,149.272,61.726,156.345,43.952z"/>
</g>
<g>
</g>
<g>
</g>
<g>
</g>
<g>
</g>
<g>
</g>
<g>
</g>
<g>
</g>
<g>
</g>
<g>
</g>
<g>
</g>
<g>
</g>
<g>
</g>
<g>
</g>
<g>
</g>
<g>
</g>
</svg>
